HIERARCHY
ROOT hip
{
	OFFSET 0.000000 0.000000 0.000000 
	CHANNELS 6 Xposition Yposition Zposition Xrotation Zrotation Yrotation
	JOINT abdomen
	{
		OFFSET 0.000000 3.402643 0.000000 
		CHANNELS 3 Xrotation Zrotation Yrotation
		JOINT chest
		{
			OFFSET 0.000000 8.438565 -0.680529 
			CHANNELS 3 Xrotation Zrotation Yrotation
			JOINT neck
			{
				OFFSET 0.000000 10.207942 -0.272212 
				CHANNELS 3 Xrotation Zrotation Yrotation
				JOINT head
				{
					OFFSET 0.000000 3.130431 0.000000 
					CHANNELS 3 Xrotation Zrotation Yrotation
					End Site
					{
						OFFSET 0.000000 3.130435 0.000000 
					}
				}
			}
			JOINT lCollar
			{
				OFFSET 3.470700 6.669187 -0.816635 
				CHANNELS 3 Yrotation Zrotation Xrotation
				JOINT lShldr
				{
					OFFSET 3.198488 0.000000 0.000000 
					CHANNELS 3 Zrotation Yrotation Xrotation
					JOINT lForeArm
					{
						OFFSET 10.139888 0.000000 0.000000 
						CHANNELS 3 Yrotation Zrotation Xrotation
						JOINT lHand
						{
							OFFSET 8.370511 0.000000 0.000000 
							CHANNELS 3 Zrotation Yrotation Xrotation
							End Site
							{
								OFFSET 4.083176 0.000000 0.000000 
							}
						}
					}
				}
			}
			JOINT rCollar
			{
				OFFSET -3.470700 6.669187 -0.816635 
				CHANNELS 3 Yrotation Zrotation Xrotation
				JOINT rShldr
				{
					OFFSET -3.198488 0.000000 0.000000 
					CHANNELS 3 Zrotation Yrotation Xrotation
					JOINT rForeArm
					{
						OFFSET -10.139888 0.000000 0.000000 
						CHANNELS 3 Yrotation Zrotation Xrotation
						JOINT rHand
						{
							OFFSET -8.370511 0.000000 0.000000 
							CHANNELS 3 Zrotation Yrotation Xrotation
							End Site
							{
								OFFSET -4.083176 0.000000 0.000000 
							}
						}
					}
				}
			}
		}
	}
	JOINT lThigh
	{
		OFFSET 5.308129 -1.633274 1.361059 
		CHANNELS 3 Xrotation Zrotation Yrotation
		JOINT lShin
		{
			OFFSET -2.041588 -20.007561 0.000000 
			CHANNELS 3 Xrotation Zrotation Yrotation
			JOINT lFoot
			{
				OFFSET 0.000000 -19.190928 -1.224953 
				CHANNELS 3 Xrotation Yrotation Zrotation
				End Site
				{
					OFFSET 0.000000 -2.449906 4.627600 
				}
			}
		}
	}
	JOINT rThigh
	{
		OFFSET -5.308129 -1.633274 1.361059 
		CHANNELS 3 Xrotation Zrotation Yrotation
		JOINT rShin
		{
			OFFSET 2.041588 -20.007561 0.000000 
			CHANNELS 3 Xrotation Zrotation Yrotation
			JOINT rFoot
			{
				OFFSET 0.000000 -19.190928 -1.224953 
				CHANNELS 3 Xrotation Yrotation Zrotation
				End Site
				{
					OFFSET 0.000000 -2.449906 4.627600 
				}
			}
		}
	}
}
MOTION
Frames: 18
Frame Time: 0.033333
16.531744 52.202377 -43.382595 171.542969 -177.246094 3.378437 33.589497 -8.964902 -5.756780 -22.705076 13.613281 6.808939 51.553619 8.070152 2.616707 -65.898438 -14.824217 -2.268124 2.000000 -2.000000 0.000000 -89.023438 14.179688 -7.292528 -52.037155 -1.756902 -1.830160 -1.635264 58.604633 6.665242 -2.000000 2.000000 0.000000 76.132813 -18.037107 4.616117 102.128822 -0.701278 -3.127386 -35.277821 -26.992498 0.333576 -13.130151 -3.134194 4.843775 17.280478 -6.121525 -2.176987 -11.901699 7.010579 -3.605328 -18.756727 -19.096903 -11.781380 54.030464 2.958812 4.347928 11.449942 -11.509269 4.958885 
16.023279 52.520519 -47.627926 171.542969 -178.281250 5.331738 33.529148 -6.606815 -6.727263 -23.066406 13.466798 6.340165 51.553619 8.070152 2.616707 -65.019531 -15.136717 -1.044922 2.000000 -2.000000 0.000000 -87.255859 9.033203 -5.926200 -53.267326 -1.775830 -1.819274 -3.630374 55.253250 4.235181 -2.000000 2.000000 0.000000 75.898438 -18.115234 5.703125 101.924950 -0.523536 -3.156128 -34.744713 -26.993887 0.302856 -3.954929 -2.890529 4.061864 8.783092 -6.287116 -1.277423 -10.300881 4.804939 -3.029563 -22.683762 -17.331932 -13.013066 46.665012 3.554430 4.018300 7.885417 -11.521036 6.315358 
15.538077 52.395672 -51.975887 171.542969 -179.501953 7.255774 33.443020 -5.019227 -7.373531 -22.890627 13.457031 5.849610 51.553619 8.070152 2.616707 -64.892586 -14.277343 -1.064454 2.000000 -2.000000 0.000000 -84.482422 3.662110 -5.185547 -55.400711 -1.462651 -1.984527 -5.561393 51.554089 2.809610 -2.000000 2.000000 0.000000 76.796875 -17.910156 5.289968 102.128822 -0.701278 -3.127386 -33.767143 -26.931923 0.047165 6.021793 -1.766015 2.813550 -2.481320 -6.336602 0.033766 -7.054071 3.034857 -3.272035 -19.898176 -13.002818 -17.417570 26.249908 4.843574 2.698675 4.743547 -9.539531 4.138855 
15.248204 51.432343 -56.493729 -8.447266 0.683594 -171.142471 33.275127 -4.792131 -7.423248 -22.138672 14.121095 5.412539 51.553619 8.070152 2.616707 -65.322273 -13.515624 -2.187500 2.000000 -2.000000 0.000000 -82.421875 -1.748047 -4.541313 -57.887234 -1.319170 -2.208026 -6.723651 48.594242 1.547102 -2.000000 2.000000 0.000000 77.763672 -17.773439 3.681641 102.451195 -0.516041 -3.116584 -33.085049 -26.860785 -0.372244 17.338577 -0.428932 1.056219 -16.527122 -5.766154 1.508618 -2.826933 2.027985 -3.960413 -18.022566 -8.647655 -19.889885 8.074407 5.635408 0.884824 3.905128 -6.241445 2.337478 
15.045701 50.190571 -60.229782 -8.291017 1.562500 -170.410202 32.745232 -5.384744 -7.428564 -20.820314 15.107422 4.833985 51.553619 8.070152 2.616707 -66.855469 -13.828123 -3.964844 2.000000 -2.000000 0.000000 -81.396484 -6.865235 -3.447266 -60.720913 -1.225989 -2.624365 -7.210421 46.518223 0.181147 -2.000000 2.000000 0.000000 77.451172 -18.125002 1.250000 102.830582 -0.684598 -3.077531 -32.813904 -26.979080 -0.551132 21.097328 1.435571 -0.435882 -14.061651 -5.670913 1.389331 -5.164010 2.977234 -3.784526 -19.784206 -5.282557 -19.735676 -4.412634 5.720935 -0.256634 8.485712 -5.409885 1.258715 
14.990620 48.969429 -63.670639 -8.105469 2.246094 -170.312119 32.379910 -6.245310 -7.358475 -19.667969 16.103516 4.436303 51.553619 8.070152 2.616707 -68.837891 -14.736328 -5.996094 2.000000 -2.000000 0.000000 -81.367188 -11.894531 -2.861328 -64.231834 -1.089056 -2.456321 -7.631945 45.057117 -0.857004 -2.000000 2.000000 0.000000 76.240234 -18.613281 -1.594913 103.356720 -0.676894 -3.380089 -32.883560 -26.903145 -0.378354 26.530561 3.075431 -1.419837 -16.539883 -5.966701 1.327072 -5.660227 4.618071 -4.338996 -21.888432 -2.409766 -18.365993 -13.407318 5.446252 -1.193063 13.963117 -5.837305 0.392833 
14.964467 48.559307 -67.170860 -7.939454 2.773438 -170.722656 32.372845 -5.469986 -7.283374 -19.316406 15.908202 4.677735 51.553619 8.070152 2.616707 -68.769531 -14.394531 -5.390625 2.000000 -2.000000 0.000000 -82.158203 -13.037110 -4.367437 -65.273857 -1.268621 -2.348090 -7.559439 44.001667 -1.838574 -2.000000 2.000000 0.000000 76.162109 -18.154299 -0.908203 103.356438 -0.677456 -3.370343 -33.146416 -26.755278 -0.214153 30.082558 3.828051 0.197805 -15.118747 -5.824673 1.214295 1.008245 4.537402 -2.906009 -26.167076 -2.527711 -17.450697 -1.961288 5.724761 -0.001983 8.688631 -6.570747 -0.060900 
14.938429 47.749912 -70.671082 -7.578125 3.476563 -171.327530 32.207222 -4.854630 -7.312039 -19.150393 15.546875 4.843750 51.553619 8.070152 2.616707 -68.710938 -14.052732 -4.824219 2.000000 -2.000000 0.000000 -82.695313 -14.091796 -5.146484 -66.349129 -0.772548 -2.396508 -7.017241 42.854137 -2.482738 -2.000000 2.000000 0.000000 75.771484 -18.076170 0.253906 103.356438 -0.677456 -3.370343 -33.401787 -26.792900 0.004263 33.375782 4.238412 1.273368 -13.740762 -5.632263 1.326871 7.934154 5.768614 -1.218970 -30.260498 -2.801975 -16.650517 10.912213 5.573195 1.021450 1.947536 -7.507963 -0.048881 
14.912277 46.488503 -74.171310 172.597672 175.966797 8.086624 32.053253 -4.230037 -7.336761 -19.169924 15.205080 4.960938 51.553619 8.070152 2.616707 -68.632813 -13.564451 -4.267579 2.000000 -2.000000 0.000000 -83.437500 -15.380858 -5.947266 -67.586426 -0.972509 -2.639111 -6.153640 41.997391 -2.948820 -2.000000 2.000000 0.000000 75.722656 -17.812500 1.188421 103.356438 -0.677456 -3.370343 -33.656746 -26.840336 0.203180 36.671806 4.804755 2.774131 -12.293117 -5.855745 1.069530 14.952944 6.094797 0.107537 -34.689651 -2.585498 -15.783123 23.437252 4.989984 2.394535 -4.468349 -8.455729 -0.075480 
14.789731 48.467937 -76.081329 172.753906 175.439453 7.158980 31.908154 -2.980599 -7.388052 -19.609375 14.013673 5.673828 51.553619 8.070152 2.616707 -67.382813 -12.539061 -2.753907 2.000000 -2.000000 0.000000 -84.160156 -10.830078 -9.023438 -65.110191 -1.097672 -2.436263 -4.313732 41.360004 -2.410444 -2.000000 2.000000 0.000000 76.308594 -17.441406 3.893557 103.171555 -0.686289 -3.048295 -33.938175 -26.937574 0.049288 41.199821 4.423927 5.066689 -16.525061 -5.726113 1.854187 26.308023 6.869056 3.364667 -31.868752 -1.649202 -14.497715 27.133589 4.827943 2.556073 -6.786975 -9.415472 0.374465 
14.616619 48.882790 -81.316742 172.939468 175.263672 6.446119 31.872627 -2.861599 -6.896401 -20.166016 13.525391 5.986329 51.553619 8.070152 2.616707 -66.298828 -11.318358 -2.089844 2.000000 -2.000000 0.000000 -85.478516 -6.396484 -10.215932 -62.475132 -1.062075 -2.497004 -3.439574 41.990204 -1.720503 -2.000000 2.000000 0.000000 77.001953 -17.890623 4.713798 102.987221 -0.498797 -3.076563 -33.945892 -26.752151 0.024406 29.203711 6.787454 7.458864 -1.212396 -5.758648 -0.081758 29.620478 7.151563 3.383821 -26.286423 -0.205129 -13.239980 25.734676 5.186966 2.028320 -6.576108 -9.790559 0.660798 
14.452647 50.311081 -85.132866 172.939468 175.087891 5.547710 31.733664 -3.997339 -5.949839 -20.888672 13.544923 5.820313 51.553619 8.070152 2.616707 -65.273438 -10.410155 -2.714844 2.000000 -2.000000 0.000000 -86.679688 -3.007812 -8.544921 -59.991055 -1.367247 -2.361910 -3.927903 43.936073 -0.766193 -2.000000 2.000000 0.000000 77.099609 -18.886719 4.235121 102.987221 -0.508546 -3.077126 -33.574440 -26.759460 -0.013186 11.354990 10.028357 7.961714 20.835857 -5.402436 -2.244349 23.316898 6.711767 1.087197 -19.147200 0.791172 -12.833184 20.620386 5.340445 1.865462 -4.329501 -10.677764 0.144106 
14.215426 51.965378 -88.737358 172.587891 175.273438 4.834789 31.500381 -5.803491 -4.581488 -21.601563 13.935548 5.527344 51.553619 8.070152 2.616707 -64.716797 -10.312500 -4.414063 2.000000 -2.000000 0.000000 -88.154297 0.703125 -4.277223 -57.167732 -1.481012 -1.963646 -4.943711 47.086712 0.097706 -2.000000 2.000000 0.000000 76.982422 -20.380861 2.050781 103.162727 -0.499361 -3.066817 -32.974941 -26.524979 -0.260191 -6.797338 13.476991 7.081842 41.081242 -4.456957 -3.808716 14.348773 5.808661 -2.533653 -11.407450 1.504833 -13.242800 14.295772 5.585854 1.093832 -4.849183 -8.762401 -0.023897 
13.971495 52.344547 -92.864891 172.236328 175.625000 3.799574 31.258945 -8.050788 -3.072000 -22.304688 14.482422 5.058593 51.553619 8.070152 2.616707 -64.414063 -10.869140 -6.484376 2.000000 -2.000000 0.000000 -88.789063 4.541016 -0.478516 -55.049675 -1.463789 -2.004017 -6.590986 50.243656 0.989356 -2.000000 2.000000 0.000000 77.343750 -22.187502 -0.296657 103.347343 -0.676540 -3.047731 -32.238300 -26.384209 -0.867689 -20.702881 14.980310 6.295303 52.505352 -3.771350 -4.976993 7.163969 5.884733 -5.366416 -2.302185 2.030127 -13.855563 4.380588 6.106440 0.182481 -3.024772 -6.020365 -0.031369 
13.805672 52.086281 -97.102341 171.718750 176.171875 2.608074 31.000593 -10.308289 -1.541240 -23.027344 14.863280 4.736328 51.553619 8.070152 2.616707 -64.179688 -11.767577 -8.623047 2.000000 -2.000000 0.000000 -89.453125 8.496095 0.938944 -53.635830 -1.605394 -2.083764 -7.335514 52.838348 1.922331 -2.000000 2.000000 0.000000 77.968750 -23.281250 -2.441406 103.523682 -0.480219 -3.398080 -31.837997 -26.156666 -0.576617 -25.086536 14.383929 7.279948 45.646332 -4.286928 -4.257484 2.660674 5.934912 -6.421986 8.286516 3.346692 -14.656498 -8.926926 5.891148 -0.711651 0.742667 -3.686502 0.306612 
13.622723 51.629436 -101.063461 171.367188 176.689453 1.602126 30.606112 -11.754224 -0.336344 -23.203125 14.863280 4.873047 51.553619 8.070152 2.616707 -64.277344 -12.451170 -10.234376 2.000000 -2.000000 0.000000 -90.322266 12.675782 -1.159965 -53.640823 -1.604904 -1.907504 -7.857496 54.435341 2.880889 -2.000000 2.000000 0.000000 78.251953 -23.095703 -3.206954 103.878822 -0.658337 -3.193237 -31.817097 -26.204870 -1.103086 -23.483906 11.834330 10.053417 26.607166 -5.200549 -3.039389 -0.985897 5.494914 -6.880076 15.845920 3.592073 -14.688201 -15.996678 5.739488 -1.466457 0.350620 -1.150317 0.464901 
13.313524 50.632824 -104.601295 170.849609 177.392578 0.635210 30.148695 -12.246140 0.194694 -22.509766 13.964845 5.664063 51.553619 8.070152 2.616707 -64.833984 -12.558593 -11.318359 2.000000 -2.000000 0.000000 -92.363281 16.904299 -6.064454 -53.824539 -1.455658 -2.200064 -7.603343 55.770947 4.168778 -2.000000 2.000000 0.000000 78.173828 -21.708982 -3.148142 104.058754 -0.825599 -3.007462 -31.699314 -26.543201 -1.756920 -23.143141 9.159399 11.227869 13.877331 -5.605741 -1.420175 -3.480516 3.964893 -6.517732 18.905897 1.942937 -15.014431 -13.706080 5.806243 -1.239855 -0.202258 -0.093594 0.152449 
12.832952 49.515556 -107.992050 170.498047 178.261719 0.058890 29.746248 -12.188234 0.458343 -21.132814 12.343750 7.001955 51.553619 8.070152 2.616707 -66.298828 -11.318358 -11.582031 2.000000 -2.000000 0.000000 -94.746094 20.039063 -12.685547 -54.547375 -1.113871 -2.210226 -7.588741 56.806118 5.717227 -2.000000 2.000000 0.000000 78.076172 -19.960939 -2.727943 104.408943 -0.838169 -2.959298 -31.867655 -26.616852 -2.267182 -27.139086 7.031752 9.826929 12.679312 -5.681756 -1.613971 -2.940105 5.589641 -5.184837 24.037127 0.926345 -14.788384 -15.997419 5.739862 -1.446950 -0.356656 -0.200879 0.079960 
